<?xml version="1.0" encoding="UTF-8" standalone="no"?>
<!-- Uploaded to: SVG Repo, www.svgrepo.com, Generator: SVG Repo Mixer Tools -->

<svg
   height="50"
   width="50"
   version="1.1"
   id="Capa_1"
   viewBox="0 0 3.5625 3.5625"
   xml:space="preserve"
   sodipodi:docname="lamp-svgrepo-com.svg"
   inkscape:version="1.2.2 (b0a8486541, 2022-12-01)"
   xmlns:inkscape="http://www.inkscape.org/namespaces/inkscape"
   xmlns:sodipodi="http://sodipodi.sourceforge.net/DTD/sodipodi-0.dtd"
   xmlns="http://www.w3.org/2000/svg"
   xmlns:svg="http://www.w3.org/2000/svg"><defs
   id="defs19" /><sodipodi:namedview
   id="namedview17"
   pagecolor="#ffffff"
   bordercolor="#000000"
   borderopacity="0.25"
   inkscape:showpageshadow="2"
   inkscape:pageopacity="0.0"
   inkscape:pagecheckerboard="0"
   inkscape:deskcolor="#d1d1d1"
   showgrid="false"
   inkscape:zoom="4.92"
   inkscape:cx="54.674797"
   inkscape:cy="40.853659"
   inkscape:window-width="1266"
   inkscape:window-height="1364"
   inkscape:window-x="0"
   inkscape:window-y="0"
   inkscape:window-maximized="1"
   inkscape:current-layer="Capa_1" />
<path
   style="fill:#f9e2af;fill-opacity:1;stroke-width:0.0612774"
   d="m 2.7512916,3.5341106 c -0.00618,0 -0.012131,-6.165e-4 -0.018075,-0.00146 -0.032721,-0.00454 -0.059255,-0.034621 -0.055763,-0.067467 0.00348,-0.032906 0.029351,-0.057171 0.062012,-0.055088 0.0036,2.496e-4 0.00711,7.342e-4 0.010655,0.00122 1.911e-4,0 3.672e-4,0 5.582e-4,0 0.1023333,0 0.1845061,-0.082356 0.1845061,-0.1835268 0,-0.1013524 -0.082479,-0.183833 -0.1838331,-0.183833 -0.1013524,0 -0.183833,0.082479 -0.183833,0.183833 0,0.033825 -0.027391,0.061276 -0.061276,0.061276 -0.033888,0 -0.061276,-0.027451 -0.061276,-0.061276 0,-0.1689416 0.137446,-0.3063872 0.3063871,-0.3063872 0.1689416,0 0.3063874,0.137446 0.3063874,0.3063872 0,0.1689417 -0.1375066,0.3063262 -0.3064487,0.3063262 z"
   id="path2" />
<path
   style="fill:#f9e2af;fill-opacity:1;stroke-width:0.0612774"
   d="m 0.65229351,2.5536713 c -0.0216921,0 -0.0425881,-0.011466 -0.0537404,-0.031804 -0.19480109,-0.3544286 -0.0313132,-0.979949 0.0784353,-1.1575312 0.0178314,-0.028739 0.0557014,-0.037685 0.0843177,-0.019909 0.0288007,0.017834 0.0376859,0.055579 0.0199149,0.084318 -0.10110787,0.1635494 -0.23769527,0.7385773 -0.0753099,1.0340572 0.0163603,0.029658 0.005515,0.066914 -0.0242046,0.083214 -0.009314,0.00522 -0.0194253,0.00766 -0.0294133,0.00766 z"
   id="path4" />
<path
   style="fill:#f9e2af;fill-opacity:1;stroke-width:0.0612774"
   d="m 2.729722,2.5145762 c -0.00999,0 -0.02009,-0.00246 -0.029414,-0.0076 C 2.67065,2.4906742 2.659803,2.4534202 2.676043,2.4237622 2.8383672,2.128221 2.701839,1.5532546 2.600734,1.389705 2.582961,1.360904 2.591844,1.323157 2.620643,1.305389 2.649259,1.287616 2.687131,1.296499 2.704959,1.325298 2.8147075,1.5028803 2.9781954,2.1284004 2.783517,2.4828292 2.772354,2.5031132 2.751408,2.5145702 2.729714,2.5145702 Z"
   id="path6" />
<path
   style="fill:#f9e2af;fill-opacity:1;stroke-width:0.0612774"
   d="M 2.6287366,3.5341106 H 0.74445475 c -0.0674052,0 -0.12255489,-0.05515 -0.12255489,-0.1225547 v -0.061276 c 0,-0.067404 0.0551498,-0.1225545 0.12255489,-0.1225545 H 2.6287366 c 0.067407,0 0.1225547,0.05515 0.1225547,0.1225545 v 0.061276 c 0,0.067407 -0.05515,0.1225547 -0.1225547,0.1225547 z"
   id="path8" />
<path
   style="fill:#f9e2af;fill-opacity:1;stroke-width:0.0612774"
   d="M 2.1997944,1.0217349 C 1.8576825,0.46000442 2.0749109,0.04129553 2.0159621,0.04129553 H 1.9950661 1.7708517 1.6215798 1.3973657 1.3765314 c -0.058949,0 0.1582798,0.41870889 -0.1838323,0.98043937 C 0.79451828,1.6755041 0.78930968,2.1847197 0.95249148,2.5089388 1.0793973,2.7610343 1.1721713,2.8683311 1.4289238,2.9985457 c 0.059561,0.03021 0.1259251,0.045345 0.1927177,0.045345 H 1.770852 c 0.066793,0 0.1331559,-0.015133 0.1927174,-0.045345 C 2.2203219,2.8682692 2.3130959,2.7610343 2.4400015,2.5089388 2.6031842,2.1847197 2.5979752,1.6755041 2.1997944,1.0217349 Z"
   id="path10" />
<path
   style="fill:#f9e2af;fill-opacity:1;stroke-width:0.0612774"
   d="m 1.7824948,1.8183419 c 0,0 -0.3145984,0.3141693 -0.2995854,0.6851431 0.00705,0.1747633 0.1270283,0.3191945 0.2727459,0.3070002 0.057784,-0.00484 0.1162433,-0.031804 0.1588321,-0.1037423 C 1.9810341,2.5941751 1.9620988,2.4382854 1.8787613,2.3431828 1.8003256,2.2538403 1.7145377,2.0875335 1.7824948,1.8183419 Z"
   id="path12" />
<path
   style="fill:#f9e2af;fill-opacity:1;stroke-width:0.0612774"
   d="m 2.3683075,3.2277235 v -0.061277 c 0,-0.067407 -0.05515,-0.1225547 -0.1225547,-0.1225547 H 1.0968002 c -0.067405,0 -0.12255492,0.05515 -0.12255492,0.1225547 v 0.061276 z"
   id="path14" />
</svg>
